<svg width="1280" height="720" xmlns="http://www.w3.org/2000/svg" xmlns:xlink="http://www.w3.org/1999/xlink" overflow="hidden"><defs><filter id="fx0" x="-10%" y="-10%" width="120%" height="120%" filterUnits="userSpaceOnUse" primitiveUnits="userSpaceOnUse"><feComponentTransfer color-interpolation-filters="sRGB"><feFuncR type="discrete" tableValues="0.498039 0.498039"/><feFuncG type="discrete" tableValues="0.498039 0.498039"/><feFuncB type="discrete" tableValues="0.498039 0.498039"/><feFuncA type="linear" slope="0.4" intercept="0"/></feComponentTransfer><feGaussianBlur stdDeviation="6.66667 6.66667"/></filter><filter id="fx1" x="-10%" y="-10%" width="120%" height="120%" filterUnits="userSpaceOnUse" primitiveUnits="userSpaceOnUse"><feComponentTransfer color-interpolation-filters="sRGB"><feFuncR type="discrete" tableValues="0.498039 0.498039"/><feFuncG type="discrete" tableValues="0.498039 0.498039"/><feFuncB type="discrete" tableValues="0.498039 0.498039"/><feFuncA type="linear" slope="0.4" intercept="0"/></feComponentTransfer><feGaussianBlur stdDeviation="6.66667 6.66667"/></filter><filter id="fx2" x="-10%" y="-10%" width="120%" height="120%" filterUnits="userSpaceOnUse" primitiveUnits="userSpaceOnUse"><feComponentTransfer color-interpolation-filters="sRGB"><feFuncR type="discrete" tableValues="1 1"/><feFuncG type="discrete" tableValues="1 1"/><feFuncB type="discrete" tableValues="1 1"/><feFuncA type="linear" slope="0.4" intercept="0"/></feComponentTransfer><feGaussianBlur stdDeviation="6.66667 6.66667"/></filter><filter id="fx3" x="-10%" y="-10%" width="120%" height="120%" filterUnits="userSpaceOnUse" primitiveUnits="userSpaceOnUse"><feComponentTransfer color-interpolation-filters="sRGB"><feFuncR type="discrete" tableValues="0.498039 0.498039"/><feFuncG type="discrete" tableValues="0.498039 0.498039"/><feFuncB type="discrete" tableValues="0.498039 0.498039"/><feFuncA type="linear" slope="0.4" intercept="0"/></feComponentTransfer><feGaussianBlur stdDeviation="6.66667 6.66667"/></filter><filter id="fx4" x="-10%" y="-10%" width="120%" height="120%" filterUnits="userSpaceOnUse" primitiveUnits="userSpaceOnUse"><feComponentTransfer color-interpolation-filters="sRGB"><feFuncR type="discrete" tableValues="1 1"/><feFuncG type="discrete" tableValues="1 1"/><feFuncB type="discrete" tableValues="1 1"/><feFuncA type="linear" slope="0.4" intercept="0"/></feComponentTransfer><feGaussianBlur stdDeviation="6.66667 6.66667"/></filter><filter id="fx5" x="-10%" y="-10%" width="120%" height="120%" filterUnits="userSpaceOnUse" primitiveUnits="userSpaceOnUse"><feComponentTransfer color-interpolation-filters="sRGB"><feFuncR type="discrete" tableValues="0.498039 0.498039"/><feFuncG type="discrete" tableValues="0.498039 0.498039"/><feFuncB type="discrete" tableValues="0.498039 0.498039"/><feFuncA type="linear" slope="0.4" intercept="0"/></feComponentTransfer><feGaussianBlur stdDeviation="6.66667 6.66667"/></filter><filter id="fx6" x="-10%" y="-10%" width="120%" height="120%" filterUnits="userSpaceOnUse" primitiveUnits="userSpaceOnUse"><feComponentTransfer color-interpolation-filters="sRGB"><feFuncR type="discrete" tableValues="1 1"/><feFuncG type="discrete" tableValues="1 1"/><feFuncB type="discrete" tableValues="1 1"/><feFuncA type="linear" slope="0.4" intercept="0"/></feComponentTransfer><feGaussianBlur stdDeviation="6.66667 6.66667"/></filter><filter id="fx7" x="-10%" y="-10%" width="120%" height="120%" filterUnits="userSpaceOnUse" primitiveUnits="userSpaceOnUse"><feComponentTransfer color-interpolation-filters="sRGB"><feFuncR type="discrete" tableValues="0.498039 0.498039"/><feFuncG type="discrete" tableValues="0.498039 0.498039"/><feFuncB type="discrete" tableValues="0.498039 0.498039"/><feFuncA type="linear" slope="0.4" intercept="0"/></feComponentTransfer><feGaussianBlur stdDeviation="6.66667 6.66667"/></filter><filter id="fx8" x="-10%" y="-10%" width="120%" height="120%" filterUnits="userSpaceOnUse" primitiveUnits="userSpaceOnUse"><feComponentTransfer color-interpolation-filters="sRGB"><feFuncR type="discrete" tableValues="1 1"/><feFuncG type="discrete" tableValues="1 1"/><feFuncB type="discrete" tableValues="1 1"/><feFuncA type="linear" slope="0.4" intercept="0"/></feComponentTransfer><feGaussianBlur stdDeviation="6.66667 6.66667"/></filter><filter id="fx9" x="-10%" y="-10%" width="120%" height="120%" filterUnits="userSpaceOnUse" primitiveUnits="userSpaceOnUse"><feComponentTransfer color-interpolation-filters="sRGB"><feFuncR type="discrete" tableValues="0.498039 0.498039"/><feFuncG type="discrete" tableValues="0.498039 0.498039"/><feFuncB type="discrete" tableValues="0.498039 0.498039"/><feFuncA type="linear" slope="0.4" intercept="0"/></feComponentTransfer><feGaussianBlur stdDeviation="6.66667 6.66667"/></filter><filter id="fx10" x="-10%" y="-10%" width="120%" height="120%" filterUnits="userSpaceOnUse" primitiveUnits="userSpaceOnUse"><feComponentTransfer color-interpolation-filters="sRGB"><feFuncR type="discrete" tableValues="1 1"/><feFuncG type="discrete" tableValues="1 1"/><feFuncB type="discrete" tableValues="1 1"/><feFuncA type="linear" slope="0.4" intercept="0"/></feComponentTransfer><feGaussianBlur stdDeviation="6.66667 6.66667"/></filter><filter id="fx11" x="-10%" y="-10%" width="120%" height="120%" filterUnits="userSpaceOnUse" primitiveUnits="userSpaceOnUse"><feComponentTransfer color-interpolation-filters="sRGB"><feFuncR type="discrete" tableValues="0.498039 0.498039"/><feFuncG type="discrete" tableValues="0.498039 0.498039"/><feFuncB type="discrete" tableValues="0.498039 0.498039"/><feFuncA type="linear" slope="0.4" intercept="0"/></feComponentTransfer><feGaussianBlur stdDeviation="6.66667 6.66667"/></filter><filter id="fx12" x="-10%" y="-10%" width="120%" height="120%" filterUnits="userSpaceOnUse" primitiveUnits="userSpaceOnUse"><feComponentTransfer color-interpolation-filters="sRGB"><feFuncR type="discrete" tableValues="1 1"/><feFuncG type="discrete" tableValues="1 1"/><feFuncB type="discrete" tableValues="1 1"/><feFuncA type="linear" slope="0.4" intercept="0"/></feComponentTransfer><feGaussianBlur stdDeviation="6.66667 6.66667"/></filter><filter id="fx13" x="-10%" y="-10%" width="120%" height="120%" filterUnits="userSpaceOnUse" primitiveUnits="userSpaceOnUse"><feComponentTransfer color-interpolation-filters="sRGB"><feFuncR type="discrete" tableValues="0.498039 0.498039"/><feFuncG type="discrete" tableValues="0.498039 0.498039"/><feFuncB type="discrete" tableValues="0.498039 0.498039"/><feFuncA type="linear" slope="0.4" intercept="0"/></feComponentTransfer><feGaussianBlur stdDeviation="6.66667 6.66667"/></filter><filter id="fx14" x="-10%" y="-10%" width="120%" height="120%" filterUnits="userSpaceOnUse" primitiveUnits="userSpaceOnUse"><feComponentTransfer color-interpolation-filters="sRGB"><feFuncR type="discrete" tableValues="1 1"/><feFuncG type="discrete" tableValues="1 1"/><feFuncB type="discrete" tableValues="1 1"/><feFuncA type="linear" slope="0.4" intercept="0"/></feComponentTransfer><feGaussianBlur stdDeviation="6.66667 6.66667"/></filter><clipPath id="clip15"><rect x="0" y="0" width="1280" height="720"/></clipPath><clipPath id="clip16"><rect x="-3" y="-3" width="225" height="724"/></clipPath><clipPath id="clip17"><rect x="0" y="0" width="219" height="717"/></clipPath><linearGradient x1="239" y1="362.5" x2="62" y2="362.5" gradientUnits="userSpaceOnUse" spreadMethod="reflect" id="fill18"><stop offset="0" stop-color="#48BDE5"/><stop offset="0.0120482" stop-color="#47BCE4"/><stop offset="0.0240964" stop-color="#47BCE4"/><stop offset="0.0361446" stop-color="#47BCE4"/><stop offset="0.0481928" stop-color="#47BCE4"/><stop offset="0.060241" stop-color="#47BCE4"/><stop offset="0.0722892" stop-color="#47BCE4"/><stop offset="0.0843373" stop-color="#47BCE4"/><stop offset="0.0963855" stop-color="#47BBE4"/><stop offset="0.108434" stop-color="#47BBE4"/><stop offset="0.120482" stop-color="#47BBE3"/><stop offset="0.13253" stop-color="#46BBE3"/><stop offset="0.144578" stop-color="#46BAE3"/><stop offset="0.156627" stop-color="#46BAE3"/><stop offset="0.168675" stop-color="#46BAE2"/><stop offset="0.180723" stop-color="#45B9E2"/><stop offset="0.192771" stop-color="#45B9E2"/><stop offset="0.204819" stop-color="#45B8E1"/><stop offset="0.216867" stop-color="#45B8E1"/><stop offset="0.228916" stop-color="#44B7E1"/><stop offset="0.240964" stop-color="#44B7E0"/><stop offset="0.253012" stop-color="#44B6E0"/><stop offset="0.26506" stop-color="#43B6E0"/><stop offset="0.277108" stop-color="#43B5DF"/><stop offset="0.289157" stop-color="#43B4DF"/><stop offset="0.301205" stop-color="#42B4DE"/><stop offset="0.313253" stop-color="#42B3DE"/><stop offset="0.325301" stop-color="#41B2DD"/><stop offset="0.337349" stop-color="#41B2DD"/><stop offset="0.349398" stop-color="#41B1DC"/><stop offset="0.361446" stop-color="#40B0DC"/><stop offset="0.373494" stop-color="#40AFDB"/><stop offset="0.385542" stop-color="#3FAEDA"/><stop offset="0.39759" stop-color="#3FAEDA"/><stop offset="0.409639" stop-color="#3EADD9"/><stop offset="0.421687" stop-color="#3EACD9"/><stop offset="0.433735" stop-color="#3DABD8"/><stop offset="0.445783" stop-color="#3DAAD7"/><stop offset="0.457831" stop-color="#3CA9D7"/><stop offset="0.46988" stop-color="#3BA8D6"/><stop offset="0.481928" stop-color="#3BA7D5"/><stop offset="0.493976" stop-color="#3AA6D5"/><stop offset="0.506024" stop-color="#3AA5D4"/><stop offset="0.518072" stop-color="#39A4D3"/><stop offset="0.53012" stop-color="#38A3D2"/><stop offset="0.542169" stop-color="#38A2D1"/><stop offset="0.554217" stop-color="#37A1D1"/><stop offset="0.566265" stop-color="#36A0D0"/><stop offset="0.578313" stop-color="#369ECF"/><stop offset="0.590361" stop-color="#359DCE"/><stop offset="0.60241" stop-color="#349CCD"/><stop offset="0.614458" stop-color="#339BCC"/><stop offset="0.626506" stop-color="#339ACC"/><stop offset="0.638554" stop-color="#3298CB"/><stop offset="0.650602" stop-color="#3197CA"/><stop offset="0.662651" stop-color="#3096C9"/><stop offset="0.674699" stop-color="#3094C8"/><stop offset="0.686747" stop-color="#2F93C7"/><stop offset="0.698795" stop-color="#2E92C6"/><stop offset="0.710843" stop-color="#2D90C5"/><stop offset="0.722892" stop-color="#2C8FC4"/><stop offset="0.73494" stop-color="#2B8DC3"/><stop offset="0.746988" stop-color="#2B8CC2"/><stop offset="0.759036" stop-color="#2A8AC1"/><stop offset="0.771084" stop-color="#2989C0"/><stop offset="0.783133" stop-color="#2887BF"/><stop offset="0.795181" stop-color="#2786BD"/><stop offset="0.807229" stop-color="#2684BC"/><stop offset="0.819277" stop-color="#2583BB"/><stop offset="0.831325" stop-color="#2481BA"/><stop offset="0.843373" stop-color="#237FB9"/><stop offset="0.855422" stop-color="#227EB8"/><stop offset="0.86747" stop-color="#217CB7"/><stop offset="0.879518" stop-color="#207AB5"/><stop offset="0.891566" stop-color="#1F79B4"/><stop offset="0.903614" stop-color="#1E77B3"/><stop offset="0.915663" stop-color="#1D75B2"/><stop offset="0.927711" stop-color="#1C74B0"/><stop offset="0.939759" stop-color="#1B72AF"/><stop offset="0.951807" stop-color="#1A70AE"/><stop offset="0.963855" stop-color="#196EAD"/><stop offset="0.975904" stop-color="#186CAB"/><stop offset="0.987952" stop-color="#176AAA"/><stop offset="1" stop-color="#1669A9"/></linearGradient><clipPath id="clip19"><rect x="-3" y="-3" width="272" height="163"/></clipPath><clipPath id="clip20"><rect x="0" y="0" width="264" height="155"/></clipPath><linearGradient x1="588" y1="221.5" x2="366" y2="221.5" gradientUnits="userSpaceOnUse" spreadMethod="reflect" id="fill21"><stop offset="0" stop-color="#FEFEFE"/><stop offset="0.0625" stop-color="#FDFDFD"/><stop offset="0.125" stop-color="#FDFDFD"/><stop offset="0.1875" stop-color="#FDFDFD"/><stop offset="0.25" stop-color="#FCFDFD"/><stop offset="0.3125" stop-color="#FCFCFC"/><stop offset="0.375" stop-color="#FBFBFC"/><stop offset="0.4375" stop-color="#FAFBFB"/><stop offset="0.5" stop-color="#F9FAFA"/><stop offset="0.5625" stop-color="#F8F9F9"/><stop offset="0.625" stop-color="#F6F8F9"/><stop offset="0.6875" stop-color="#F5F7F8"/><stop offset="0.75" stop-color="#F4F6F7"/><stop offset="0.8125" stop-color="#F2F5F5"/><stop offset="0.875" stop-color="#F0F3F4"/><stop offset="0.9375" stop-color="#EEF2F3"/><stop offset="1" stop-color="#EDF1F2"/></linearGradient><clipPath id="clip22"><rect x="-3" y="-3" width="272" height="159"/></clipPath><clipPath id="clip23"><rect x="0" y="0" width="264" height="155"/></clipPath><linearGradient x1="588" y1="221.5" x2="366" y2="221.5" gradientUnits="userSpaceOnUse" spreadMethod="reflect" id="fill24"><stop offset="0" stop-color="#FEFEFE"/><stop offset="0.0625" stop-color="#FDFDFD"/><stop offset="0.125" stop-color="#FDFDFD"/><stop offset="0.1875" stop-color="#FDFDFD"/><stop offset="0.25" stop-color="#FCFDFD"/><stop offset="0.3125" stop-color="#FCFCFC"/><stop offset="0.375" stop-color="#FBFBFC"/><stop offset="0.4375" stop-color="#FAFBFB"/><stop offset="0.5" stop-color="#F9FAFA"/><stop offset="0.5625" stop-color="#F8F9F9"/><stop offset="0.625" stop-color="#F6F8F9"/><stop offset="0.6875" stop-color="#F5F7F8"/><stop offset="0.75" stop-color="#F4F6F7"/><stop offset="0.8125" stop-color="#F2F5F5"/><stop offset="0.875" stop-color="#F0F3F4"/><stop offset="0.9375" stop-color="#EEF2F3"/><stop offset="1" stop-color="#EDF1F2"/></linearGradient><clipPath id="clip25"><rect x="-3" y="-3" width="206" height="163"/></clipPath><clipPath id="clip26"><rect x="0" y="0" width="200" height="155"/></clipPath><linearGradient x1="787" y1="221.5" x2="629" y2="221.5" gradientUnits="userSpaceOnUse" spreadMethod="reflect" id="fill27"><stop offset="0" stop-color="#FEFEFE"/><stop offset="0.0625" stop-color="#FDFDFD"/><stop offset="0.125" stop-color="#FDFDFD"/><stop offset="0.1875" stop-color="#FDFDFD"/><stop offset="0.25" stop-color="#FCFDFD"/><stop offset="0.3125" stop-color="#FCFCFC"/><stop offset="0.375" stop-color="#FBFBFC"/><stop offset="0.4375" stop-color="#FAFBFB"/><stop offset="0.5" stop-color="#F9FAFA"/><stop offset="0.5625" stop-color="#F8F9F9"/><stop offset="0.625" stop-color="#F6F8F9"/><stop offset="0.6875" stop-color="#F5F7F8"/><stop offset="0.75" stop-color="#F4F6F7"/><stop offset="0.8125" stop-color="#F2F5F5"/><stop offset="0.875" stop-color="#F0F3F4"/><stop offset="0.9375" stop-color="#EEF2F3"/><stop offset="1" stop-color="#EDF1F2"/></linearGradient><clipPath id="clip28"><rect x="-3" y="-3" width="206" height="159"/></clipPath><clipPath id="clip29"><rect x="0" y="0" width="200" height="155"/></clipPath><linearGradient x1="787" y1="221.5" x2="629" y2="221.5" gradientUnits="userSpaceOnUse" spreadMethod="reflect" id="fill30"><stop offset="0" stop-color="#FEFEFE"/><stop offset="0.0625" stop-color="#FDFDFD"/><stop offset="0.125" stop-color="#FDFDFD"/><stop offset="0.1875" stop-color="#FDFDFD"/><stop offset="0.25" stop-color="#FCFDFD"/><stop offset="0.3125" stop-color="#FCFCFC"/><stop offset="0.375" stop-color="#FBFBFC"/><stop offset="0.4375" stop-color="#FAFBFB"/><stop offset="0.5" stop-color="#F9FAFA"/><stop offset="0.5625" stop-color="#F8F9F9"/><stop offset="0.625" stop-color="#F6F8F9"/><stop offset="0.6875" stop-color="#F5F7F8"/><stop offset="0.75" stop-color="#F4F6F7"/><stop offset="0.8125" stop-color="#F2F5F5"/><stop offset="0.875" stop-color="#F0F3F4"/><stop offset="0.9375" stop-color="#EEF2F3"/><stop offset="1" stop-color="#EDF1F2"/></linearGradient><clipPath id="clip31"><rect x="-3" y="-3" width="206" height="163"/></clipPath><clipPath id="clip32"><rect x="0" y="0" width="201" height="156"/></clipPath><linearGradient x1="989" y1="220" x2="830" y2="220" gradientUnits="userSpaceOnUse" spreadMethod="reflect" id="fill33"><stop offset="0" stop-color="#FEFEFE"/><stop offset="0.0625" stop-color="#FDFDFD"/><stop offset="0.125" stop-color="#FDFDFD"/><stop offset="0.1875" stop-color="#FDFDFD"/><stop offset="0.25" stop-color="#FCFDFD"/><stop offset="0.3125" stop-color="#FCFCFC"/><stop offset="0.375" stop-color="#FBFBFC"/><stop offset="0.4375" stop-color="#FAFBFB"/><stop offset="0.5" stop-color="#F9FAFA"/><stop offset="0.5625" stop-color="#F8F9F9"/><stop offset="0.625" stop-color="#F6F8F9"/><stop offset="0.6875" stop-color="#F5F7F8"/><stop offset="0.75" stop-color="#F4F6F7"/><stop offset="0.8125" stop-color="#F2F5F5"/><stop offset="0.875" stop-color="#F0F3F4"/><stop offset="0.9375" stop-color="#EEF2F3"/><stop offset="1" stop-color="#EDF1F2"/></linearGradient><clipPath id="clip34"><rect x="-3" y="-3" width="206" height="163"/></clipPath><clipPath id="clip35"><rect x="0" y="0" width="201" height="156"/></clipPath><linearGradient x1="989" y1="220" x2="830" y2="220" gradientUnits="userSpaceOnUse" spreadMethod="reflect" id="fill36"><stop offset="0" stop-color="#FEFEFE"/><stop offset="0.0625" stop-color="#FDFDFD"/><stop offset="0.125" stop-color="#FDFDFD"/><stop offset="0.1875" stop-color="#FDFDFD"/><stop offset="0.25" stop-color="#FCFDFD"/><stop offset="0.3125" stop-color="#FCFCFC"/><stop offset="0.375" stop-color="#FBFBFC"/><stop offset="0.4375" stop-color="#FAFBFB"/><stop offset="0.5" stop-color="#F9FAFA"/><stop offset="0.5625" stop-color="#F8F9F9"/><stop offset="0.625" stop-color="#F6F8F9"/><stop offset="0.6875" stop-color="#F5F7F8"/><stop offset="0.75" stop-color="#F4F6F7"/><stop offset="0.8125" stop-color="#F2F5F5"/><stop offset="0.875" stop-color="#F0F3F4"/><stop offset="0.9375" stop-color="#EEF2F3"/><stop offset="1" stop-color="#EDF1F2"/></linearGradient><clipPath id="clip37"><rect x="-3" y="-3" width="206" height="163"/></clipPath><clipPath id="clip38"><rect x="0" y="0" width="200" height="155"/></clipPath><linearGradient x1="1188" y1="222.5" x2="1030" y2="222.5" gradientUnits="userSpaceOnUse" spreadMethod="reflect" id="fill39"><stop offset="0" stop-color="#FEFEFE"/><stop offset="0.0625" stop-color="#FDFDFD"/><stop offset="0.125" stop-color="#FDFDFD"/><stop offset="0.1875" stop-color="#FDFDFD"/><stop offset="0.25" stop-color="#FCFDFD"/><stop offset="0.3125" stop-color="#FCFCFC"/><stop offset="0.375" stop-color="#FBFBFC"/><stop offset="0.4375" stop-color="#FAFBFB"/><stop offset="0.5" stop-color="#F9FAFA"/><stop offset="0.5625" stop-color="#F8F9F9"/><stop offset="0.625" stop-color="#F6F8F9"/><stop offset="0.6875" stop-color="#F5F7F8"/><stop offset="0.75" stop-color="#F4F6F7"/><stop offset="0.8125" stop-color="#F2F5F5"/><stop offset="0.875" stop-color="#F0F3F4"/><stop offset="0.9375" stop-color="#EEF2F3"/><stop offset="1" stop-color="#EDF1F2"/></linearGradient><clipPath id="clip40"><rect x="-3" y="-3" width="206" height="159"/></clipPath><clipPath id="clip41"><rect x="0" y="0" width="200" height="155"/></clipPath><linearGradient x1="1188" y1="222.5" x2="1030" y2="222.5" gradientUnits="userSpaceOnUse" spreadMethod="reflect" id="fill42"><stop offset="0" stop-color="#FEFEFE"/><stop offset="0.0625" stop-color="#FDFDFD"/><stop offset="0.125" stop-color="#FDFDFD"/><stop offset="0.1875" stop-color="#FDFDFD"/><stop offset="0.25" stop-color="#FCFDFD"/><stop offset="0.3125" stop-color="#FCFCFC"/><stop offset="0.375" stop-color="#FBFBFC"/><stop offset="0.4375" stop-color="#FAFBFB"/><stop offset="0.5" stop-color="#F9FAFA"/><stop offset="0.5625" stop-color="#F8F9F9"/><stop offset="0.625" stop-color="#F6F8F9"/><stop offset="0.6875" stop-color="#F5F7F8"/><stop offset="0.75" stop-color="#F4F6F7"/><stop offset="0.8125" stop-color="#F2F5F5"/><stop offset="0.875" stop-color="#F0F3F4"/><stop offset="0.9375" stop-color="#EEF2F3"/><stop offset="1" stop-color="#EDF1F2"/></linearGradient><clipPath id="clip43"><rect x="-3" y="-3" width="373" height="109"/></clipPath><clipPath id="clip44"><rect x="0" y="0" width="367" height="102"/></clipPath><linearGradient x1="1188" y1="96" x2="863" y2="96" gradientUnits="userSpaceOnUse" spreadMethod="reflect" id="fill45"><stop offset="0" stop-color="#FEFEFE"/><stop offset="0.0625" stop-color="#FDFDFD"/><stop offset="0.125" stop-color="#FDFDFD"/><stop offset="0.1875" stop-color="#FDFDFD"/><stop offset="0.25" stop-color="#FCFDFD"/><stop offset="0.3125" stop-color="#FCFCFC"/><stop offset="0.375" stop-color="#FBFBFC"/><stop offset="0.4375" stop-color="#FAFBFB"/><stop offset="0.5" stop-color="#F9FAFA"/><stop offset="0.5625" stop-color="#F8F9F9"/><stop offset="0.625" stop-color="#F6F8F9"/><stop offset="0.6875" stop-color="#F5F7F8"/><stop offset="0.75" stop-color="#F4F6F7"/><stop offset="0.8125" stop-color="#F2F5F5"/><stop offset="0.875" stop-color="#F0F3F4"/><stop offset="0.9375" stop-color="#EEF2F3"/><stop offset="1" stop-color="#EDF1F2"/></linearGradient><clipPath id="clip46"><rect x="-3" y="-3" width="373" height="109"/></clipPath><clipPath id="clip47"><rect x="0" y="0" width="367" height="102"/></clipPath><linearGradient x1="1188" y1="96" x2="863" y2="96" gradientUnits="userSpaceOnUse" spreadMethod="reflect" id="fill48"><stop offset="0" stop-color="#FEFEFE"/><stop offset="0.0625" stop-color="#FDFDFD"/><stop offset="0.125" stop-color="#FDFDFD"/><stop offset="0.1875" stop-color="#FDFDFD"/><stop offset="0.25" stop-color="#FCFDFD"/><stop offset="0.3125" stop-color="#FCFCFC"/><stop offset="0.375" stop-color="#FBFBFC"/><stop offset="0.4375" stop-color="#FAFBFB"/><stop offset="0.5" stop-color="#F9FAFA"/><stop offset="0.5625" stop-color="#F8F9F9"/><stop offset="0.625" stop-color="#F6F8F9"/><stop offset="0.6875" stop-color="#F5F7F8"/><stop offset="0.75" stop-color="#F4F6F7"/><stop offset="0.8125" stop-color="#F2F5F5"/><stop offset="0.875" stop-color="#F0F3F4"/><stop offset="0.9375" stop-color="#EEF2F3"/><stop offset="1" stop-color="#EDF1F2"/></linearGradient><clipPath id="clip49"><rect x="-3" y="-3" width="937" height="402"/></clipPath><clipPath id="clip50"><rect x="0" y="0" width="931" height="393"/></clipPath><linearGradient x1="1218" y1="478.5" x2="329" y2="478.5" gradientUnits="userSpaceOnUse" spreadMethod="reflect" id="fill51"><stop offset="0" stop-color="#FEFEFE"/><stop offset="0.0625" stop-color="#FDFDFD"/><stop offset="0.125" stop-color="#FDFDFD"/><stop offset="0.1875" stop-color="#FDFDFD"/><stop offset="0.25" stop-color="#FCFDFD"/><stop offset="0.3125" stop-color="#FCFCFC"/><stop offset="0.375" stop-color="#FBFBFC"/><stop offset="0.4375" stop-color="#FAFBFB"/><stop offset="0.5" stop-color="#F9FAFA"/><stop offset="0.5625" stop-color="#F8F9F9"/><stop offset="0.625" stop-color="#F6F8F9"/><stop offset="0.6875" stop-color="#F5F7F8"/><stop offset="0.75" stop-color="#F4F6F7"/><stop offset="0.8125" stop-color="#F2F5F5"/><stop offset="0.875" stop-color="#F0F3F4"/><stop offset="0.9375" stop-color="#EEF2F3"/><stop offset="1" stop-color="#EDF1F2"/></linearGradient><clipPath id="clip52"><rect x="-3" y="-3" width="937" height="398"/></clipPath><clipPath id="clip53"><rect x="0" y="0" width="931" height="393"/></clipPath><linearGradient x1="1218" y1="478.5" x2="329" y2="478.5" gradientUnits="userSpaceOnUse" spreadMethod="reflect" id="fill54"><stop offset="0" stop-color="#FEFEFE"/><stop offset="0.0625" stop-color="#FDFDFD"/><stop offset="0.125" stop-color="#FDFDFD"/><stop offset="0.1875" stop-color="#FDFDFD"/><stop offset="0.25" stop-color="#FCFDFD"/><stop offset="0.3125" stop-color="#FCFCFC"/><stop offset="0.375" stop-color="#FBFBFC"/><stop offset="0.4375" stop-color="#FAFBFB"/><stop offset="0.5" stop-color="#F9FAFA"/><stop offset="0.5625" stop-color="#F8F9F9"/><stop offset="0.625" stop-color="#F6F8F9"/><stop offset="0.6875" stop-color="#F5F7F8"/><stop offset="0.75" stop-color="#F4F6F7"/><stop offset="0.8125" stop-color="#F2F5F5"/><stop offset="0.875" stop-color="#F0F3F4"/><stop offset="0.9375" stop-color="#EEF2F3"/><stop offset="1" stop-color="#EDF1F2"/></linearGradient><clipPath id="clip55"><rect x="-3" y="-3" width="261" height="261"/></clipPath><clipPath id="clip56"><rect x="0" y="0" width="254" height="254"/></clipPath><clipPath id="clip57"><rect x="-3" y="-3" width="261" height="261"/></clipPath><clipPath id="clip58"><rect x="0" y="0" width="254" height="254"/></clipPath></defs><g clip-path="url(#clip15)"><rect x="0" y="0" width="1280" height="720" fill="#FFFFFF"/><path d="M117 79.3745C117 57.6285 134.629 40 156.374 40L1221.63 40C1243.37 40 1261 57.6285 1261 79.3745L1261 644.625C1261 666.371 1243.37 684 1221.63 684L156.374 684C134.629 684 117 666.371 117 644.625Z" fill="#EDFAFF" fill-rule="evenodd"/><g clip-path="url(#clip16)" filter="url(#fx0)" transform="translate(55 18)"><g clip-path="url(#clip17)"><path d="M21.1421 50.6424C21.1421 34.3498 34.3498 21.1421 50.6424 21.1421L168.642 21.1421C184.934 21.1421 198.142 34.3498 198.142 50.6424L198.142 666.642C198.142 682.934 184.934 696.142 168.642 696.142L50.6424 696.142C34.3498 696.142 21.1421 682.934 21.1421 666.642Z" fill="#FF0000" fill-rule="evenodd"/></g></g><path d="M62 54.5002C62 38.2077 75.2077 25 91.5002 25L209.5 25C225.792 25 239 38.2077 239 54.5002L239 670.5C239 686.792 225.792 700 209.5 700L91.5002 700C75.2077 700 62 686.792 62 670.5Z" fill="url(#fill18)" fill-rule="evenodd"/><g clip-path="url(#clip19)" filter="url(#fx1)" transform="translate(359 158)"><g clip-path="url(#clip20)"><path d="M21.1422 39.9757C21.1422 29.5742 29.5742 21.1421 39.9757 21.1421L224.309 21.1421C234.71 21.1421 243.142 29.5742 243.142 39.9757L243.142 115.309C243.142 125.71 234.71 134.142 224.309 134.142L39.9757 134.142C29.5742 134.142 21.1422 125.71 21.1422 115.309Z" fill="#FF0000" fill-rule="evenodd"/></g></g><path d="M366 183.834C366 173.432 374.432 165 384.834 165L569.166 165C579.568 165 588 173.432 588 183.834L588 259.166C588 269.568 579.568 278 569.166 278L384.834 278C374.432 278 366 269.568 366 259.166Z" fill="url(#fill21)" fill-rule="evenodd"/><g clip-path="url(#clip22)" filter="url(#fx2)" transform="translate(331 130)"><g clip-path="url(#clip23)"><path d="M20.8578 39.6915C20.8578 29.29 29.2899 20.8579 39.6914 20.8579L224.024 20.8579C234.426 20.8579 242.858 29.29 242.858 39.6915L242.858 115.024C242.858 125.426 234.426 133.858 224.024 133.858L39.6914 133.858C29.2899 133.858 20.8578 125.426 20.8578 115.024Z" fill="#FF0000" fill-rule="evenodd"/></g></g><path d="M366 183.834C366 173.432 374.432 165 384.834 165L569.166 165C579.568 165 588 173.432 588 183.834L588 259.166C588 269.568 579.568 278 569.166 278L384.834 278C374.432 278 366 269.568 366 259.166Z" fill="url(#fill24)" fill-rule="evenodd"/><g clip-path="url(#clip25)" filter="url(#fx3)" transform="translate(622 158)"><g clip-path="url(#clip26)"><path d="M21.1422 39.9758C21.1422 29.5743 29.5743 21.1421 39.9758 21.1421L160.308 21.1421C170.71 21.1421 179.142 29.5743 179.142 39.9758L179.142 115.308C179.142 125.71 170.71 134.142 160.308 134.142L39.9758 134.142C29.5743 134.142 21.1422 125.71 21.1422 115.308Z" fill="#FF0000" fill-rule="evenodd"/></g></g><path d="M629 183.834C629 173.432 637.432 165 647.834 165L768.166 165C778.568 165 787 173.432 787 183.834L787 259.166C787 269.568 778.568 278 768.166 278L647.834 278C637.432 278 629 269.568 629 259.166Z" fill="url(#fill27)" fill-rule="evenodd"/><g clip-path="url(#clip28)" filter="url(#fx4)" transform="translate(594 130)"><g clip-path="url(#clip29)"><path d="M20.8578 39.6916C20.8578 29.29 29.29 20.8579 39.6915 20.8579L160.024 20.8579C170.426 20.8579 178.858 29.29 178.858 39.6916L178.858 115.024C178.858 125.426 170.426 133.858 160.024 133.858L39.6915 133.858C29.29 133.858 20.8578 125.426 20.8578 115.024Z" fill="#FF0000" fill-rule="evenodd"/></g></g><path d="M629 183.834C629 173.432 637.432 165 647.834 165L768.166 165C778.568 165 787 173.432 787 183.834L787 259.166C787 269.568 778.568 278 768.166 278L647.834 278C637.432 278 629 269.568 629 259.166Z" fill="url(#fill30)" fill-rule="evenodd"/><g clip-path="url(#clip31)" filter="url(#fx5)" transform="translate(823 156)"><g clip-path="url(#clip32)"><path d="M21.1422 40.1425C21.1422 29.6489 29.6489 21.1421 40.1425 21.1421L161.142 21.1421C171.635 21.1421 180.142 29.6489 180.142 40.1425L180.142 116.142C180.142 126.635 171.635 135.142 161.142 135.142L40.1425 135.142C29.6489 135.142 21.1422 126.635 21.1422 116.142Z" fill="#FF0000" fill-rule="evenodd"/></g></g><path d="M830 182C830 171.507 838.507 163 849 163L970 163C980.493 163 989 171.507 989 182L989 258C989 268.493 980.493 277 970 277L849 277C838.507 277 830 268.493 830 258Z" fill="url(#fill33)" fill-rule="evenodd"/><g clip-path="url(#clip34)" filter="url(#fx6)" transform="translate(795 128)"><g clip-path="url(#clip35)"><path d="M20.8578 39.8582C20.8578 29.3646 29.3646 20.8579 39.8582 20.8579L160.857 20.8579C171.351 20.8579 179.858 29.3646 179.858 39.8582L179.858 115.857C179.858 126.351 171.351 134.858 160.857 134.858L39.8582 134.858C29.3646 134.858 20.8578 126.351 20.8578 115.857Z" fill="#FF0000" fill-rule="evenodd"/></g></g><path d="M830 182C830 171.507 838.507 163 849 163L970 163C980.493 163 989 171.507 989 182L989 258C989 268.493 980.493 277 970 277L849 277C838.507 277 830 268.493 830 258Z" fill="url(#fill36)" fill-rule="evenodd"/><g clip-path="url(#clip37)" filter="url(#fx7)" transform="translate(1023 159)"><g clip-path="url(#clip38)"><path d="M21.1421 39.9758C21.1421 29.5743 29.5742 21.1421 39.9758 21.1421L160.308 21.1421C170.71 21.1421 179.142 29.5743 179.142 39.9758L179.142 115.308C179.142 125.71 170.71 134.142 160.308 134.142L39.9758 134.142C29.5742 134.142 21.1421 125.71 21.1421 115.308Z" fill="#FF0000" fill-rule="evenodd"/></g></g><path d="M1030 184.834C1030 174.432 1038.43 166 1048.83 166L1169.17 166C1179.57 166 1188 174.432 1188 184.834L1188 260.166C1188 270.568 1179.57 279 1169.17 279L1048.83 279C1038.43 279 1030 270.568 1030 260.166Z" fill="url(#fill39)" fill-rule="evenodd"/><g clip-path="url(#clip40)" filter="url(#fx8)" transform="translate(995 131)"><g clip-path="url(#clip41)"><path d="M20.8578 39.6916C20.8578 29.29 29.29 20.8579 39.6915 20.8579L160.024 20.8579C170.426 20.8579 178.858 29.29 178.858 39.6916L178.858 115.024C178.858 125.426 170.426 133.858 160.024 133.858L39.6915 133.858C29.29 133.858 20.8578 125.426 20.8578 115.024Z" fill="#FF0000" fill-rule="evenodd"/></g></g><path d="M1030 184.834C1030 174.432 1038.43 166 1048.83 166L1169.17 166C1179.57 166 1188 174.432 1188 184.834L1188 260.166C1188 270.568 1179.57 279 1169.17 279L1048.83 279C1038.43 279 1030 270.568 1030 260.166Z" fill="url(#fill42)" fill-rule="evenodd"/><g clip-path="url(#clip43)" filter="url(#fx9)" transform="translate(856 59)"><g clip-path="url(#clip44)"><path d="M21.1422 31.1424C21.1422 25.6194 25.6194 21.1421 31.1424 21.1421L336.142 21.1421C341.665 21.1421 346.142 25.6194 346.142 31.1424L346.142 71.1419C346.142 76.6649 341.665 81.1421 336.142 81.1421L31.1424 81.1421C25.6194 81.1421 21.1422 76.6649 21.1422 71.1419Z" fill="#FF0000" fill-rule="evenodd"/></g></g><path d="M863 76.0002C863 70.4773 867.477 66 873 66L1178 66C1183.52 66 1188 70.4773 1188 76.0002L1188 116C1188 121.523 1183.52 126 1178 126L873 126C867.477 126 863 121.523 863 116Z" fill="url(#fill45)" fill-rule="evenodd"/><g clip-path="url(#clip46)" filter="url(#fx10)" transform="translate(828 31)"><g clip-path="url(#clip47)"><path d="M20.8578 30.8581C20.8578 25.3351 25.3351 20.8579 30.8581 20.8579L335.858 20.8579C341.381 20.8579 345.858 25.3351 345.858 30.8581L345.858 70.8576C345.858 76.3806 341.381 80.8579 335.858 80.8579L30.8581 80.8579C25.3351 80.8579 20.8578 76.3806 20.8578 70.8576Z" fill="#FF0000" fill-rule="evenodd"/></g></g><path d="M863 76.0002C863 70.4773 867.477 66 873 66L1178 66C1183.52 66 1188 70.4773 1188 76.0002L1188 116C1188 121.523 1183.52 126 1178 126L873 126C867.477 126 863 121.523 863 116Z" fill="url(#fill48)" fill-rule="evenodd"/><g clip-path="url(#clip49)" filter="url(#fx11)" transform="translate(322 296)"><g clip-path="url(#clip50)"><path d="M21.1422 79.6438C21.1422 47.3342 47.3342 21.1422 79.6437 21.1422L851.641 21.1422C883.95 21.1422 910.142 47.3342 910.142 79.6438L910.142 313.641C910.142 345.95 883.95 372.142 851.641 372.142L79.6437 372.142C47.3342 372.142 21.1422 345.95 21.1422 313.641Z" fill="#FF0000" fill-rule="evenodd"/></g></g><path d="M329 361.502C329 329.192 355.192 303 387.502 303L1159.5 303C1191.81 303 1218 329.192 1218 361.502L1218 595.498C1218 627.808 1191.81 654 1159.5 654L387.502 654C355.192 654 329 627.808 329 595.498Z" fill="url(#fill51)" fill-rule="evenodd"/><g clip-path="url(#clip52)" filter="url(#fx12)" transform="translate(294 268)"><g clip-path="url(#clip53)"><path d="M20.8578 79.3595C20.8578 47.0499 47.0499 20.8578 79.3594 20.8578L851.356 20.8578C883.666 20.8578 909.858 47.0499 909.858 79.3595L909.858 313.356C909.858 345.666 883.666 371.858 851.356 371.858L79.3594 371.858C47.0499 371.858 20.8578 345.666 20.8578 313.356Z" fill="#FF0000" fill-rule="evenodd"/></g></g><path d="M329 361.502C329 329.192 355.192 303 387.502 303L1159.5 303C1191.81 303 1218 329.192 1218 361.502L1218 595.498C1218 627.808 1191.81 654 1159.5 654L387.502 654C355.192 654 329 627.808 329 595.498Z" fill="url(#fill54)" fill-rule="evenodd"/><g clip-path="url(#clip55)" filter="url(#fx13)" transform="translate(38 107)"><g clip-path="url(#clip56)"><path d="M21.1421 127.142C21.1421 68.5999 68.5999 21.1421 127.142 21.1421 185.684 21.1421 233.142 68.5999 233.142 127.142 233.142 185.684 185.684 233.142 127.142 233.142 68.5999 233.142 21.1421 185.684 21.1421 127.142Z" fill="#FFFFFF" fill-rule="evenodd"/></g></g><path d="M45 220C45 161.458 92.4578 114 151 114 209.542 114 257 161.458 257 220 257 278.542 209.542 326 151 326 92.4578 326 45 278.542 45 220Z" fill="#FFFFFF" fill-rule="evenodd"/><g clip-path="url(#clip57)" filter="url(#fx14)" transform="translate(10 76)"><g clip-path="url(#clip58)"><path d="M20.8579 126.858C20.8579 68.3157 68.3157 20.8579 126.858 20.8579 185.4 20.8579 232.858 68.3157 232.858 126.858 232.858 185.4 185.4 232.858 126.858 232.858 68.3157 232.858 20.8579 185.4 20.8579 126.858Z" fill="#FFFFFF" fill-rule="evenodd"/></g></g><path d="M45 217C45 158.458 92.4578 111 151 111 209.542 111 257 158.458 257 217 257 275.542 209.542 323 151 323 92.4578 323 45 275.542 45 217Z" fill="#FFFFFF" fill-rule="evenodd"/></g></svg>